<?xml version="1.0" standalone="no"?><svg xmlns="http://www.w3.org/2000/svg" viewBox="0 0 1440 320"><path fill="#0099ff" fill-opacity="1" d="M0,64L21.8,64C43.6,64,87,64,131,85.3C174.5,107,218,149,262,144C305.5,139,349,85,393,69.3C436.4,53,480,75,524,101.3C567.3,128,611,160,655,160C698.2,160,742,128,785,117.3C829.1,107,873,117,916,101.3C960,85,1004,43,1047,58.7C1090.9,75,1135,149,1178,154.7C1221.8,160,1265,96,1309,69.3C1352.7,43,1396,53,1418,58.7L1440,64L1440,0L1418.2,0C1396.4,0,1353,0,1309,0C1265.5,0,1222,0,1178,0C1134.5,0,1091,0,1047,0C1003.6,0,960,0,916,0C872.7,0,829,0,785,0C741.8,0,698,0,655,0C610.9,0,567,0,524,0C480,0,436,0,393,0C349.1,0,305,0,262,0C218.2,0,175,0,131,0C87.3,0,44,0,22,0L0,0Z"></path></svg>